<svg width="24" height="24" viewBox="0 0 24 24" fill="none" xmlns="http://www.w3.org/2000/svg">
<path fill-rule="evenodd" clip-rule="evenodd" d="M18.7502 16.836C19.0949 16.5462 19.4141 16.25 19.707 15.9571C20.5721 15.0921 21.2348 14.2302 21.6816 13.5849C21.9056 13.2613 22.077 12.9899 22.1938 12.7966C22.2523 12.6999 22.2972 12.6225 22.3284 12.5677C22.344 12.5404 22.3562 12.5186 22.3649 12.5029L22.3753 12.4838L22.3786 12.4778L22.3798 12.4757L22.3802 12.4748C22.3804 12.4745 22.3806 12.4742 21.5002 12L22.3806 12.4742L22.6359 12L22.3806 11.5258L21.5002 12C22.3806 11.5258 22.3804 11.5255 22.3802 11.5252L22.3798 11.5243L22.3786 11.5222L22.3753 11.5162L22.3649 11.4971C22.3562 11.4814 22.344 11.4596 22.3284 11.4323C22.2972 11.3775 22.2523 11.3001 22.1938 11.2034C22.077 11.0101 21.9056 10.7387 21.6816 10.4151C21.2348 9.7698 20.5721 8.90792 19.7071 8.04288C17.9923 6.32814 15.3772 4.5 12.0002 4.5C10.3172 4.5 8.82343 4.95405 7.53605 5.62183L9.03718 7.12296C9.93833 6.73741 10.9285 6.5 12.0002 6.5C14.6227 6.5 16.7576 7.92186 18.2929 9.45712C19.0529 10.2171 19.6403 10.9802 20.0373 11.5536C20.1532 11.721 20.2523 11.8715 20.3343 12C20.2523 12.1285 20.1532 12.279 20.0373 12.4464C19.6403 13.0198 19.0528 13.7829 18.2928 14.5429C17.9943 14.8414 17.6731 15.1356 17.3301 15.4159L18.7502 16.836ZM14.851 12.9368C14.9478 12.642 15.0002 12.3271 15.0002 12C15.0002 10.3431 13.657 9 12.0002 9C11.673 9 11.3581 9.05236 11.0634 9.14915L14.851 12.9368ZM9.47123 10.3854L13.6147 14.5289C13.1486 14.8271 12.5946 15 12.0002 15C10.3433 15 9.00015 13.6569 9.00015 12C9.00015 11.4056 9.17302 10.8516 9.47123 10.3854ZM7.23587 8.15008C6.67517 8.55265 6.16471 8.99986 5.70743 9.45712C4.94744 10.2171 4.36003 10.9802 3.96301 11.5536C3.84708 11.7211 3.74793 11.8715 3.66598 12.0001C3.7479 12.1286 3.84702 12.279 3.96292 12.4465C4.35986 13.0199 4.94715 13.783 5.70704 14.5429C7.24214 16.0781 9.37691 17.5 11.9997 17.5C13.3462 17.5 14.5642 17.1252 15.6385 16.5527L17.1048 18.019C15.6807 18.8778 13.9699 19.5 11.9997 19.5C8.62242 19.5 6.00743 17.6719 4.29277 15.9571C3.42779 15.092 2.7652 14.2301 2.31848 13.5848C2.09452 13.2613 1.92321 12.9898 1.80638 12.7965C1.74793 12.6998 1.703 12.6224 1.67182 12.5676C1.65623 12.5403 1.64407 12.5185 1.63537 12.5028L1.62491 12.4837L1.62163 12.4777L1.62048 12.4756L1.62002 12.4747C1.61983 12.4744 1.61965 12.474 2.50015 12C1.61971 11.5258 1.61989 11.5255 1.62008 11.5252L1.62053 11.5243L1.62168 11.5222L1.62497 11.5162L1.63543 11.4971C1.64413 11.4814 1.6563 11.4596 1.67189 11.4323C1.70307 11.3775 1.74801 11.3001 1.80648 11.2034C1.92333 11.0101 2.09467 10.7387 2.31868 10.4151C2.76548 9.7698 3.42817 8.90792 4.29324 8.04288C4.7378 7.59834 5.24286 7.14618 5.80602 6.72023L7.23587 8.15008ZM2.50015 12L1.61965 12.474L1.3644 11.9999L1.61971 11.5258L2.50015 12Z" fill="#0C1200"/>
<path fill-rule="evenodd" clip-rule="evenodd" d="M18.7502 16.836C19.0949 16.5462 19.4141 16.25 19.707 15.9571C20.5721 15.0921 21.2348 14.2302 21.6816 13.5849C21.9056 13.2613 22.077 12.9899 22.1938 12.7966C22.2523 12.6999 22.2972 12.6225 22.3284 12.5677C22.344 12.5404 22.3562 12.5186 22.3649 12.5029L22.3753 12.4838L22.3786 12.4778L22.3798 12.4757L22.3802 12.4748C22.3804 12.4745 22.3806 12.4742 21.5002 12L22.3806 12.4742L22.6359 12L22.3806 11.5258L21.5002 12C22.3806 11.5258 22.3804 11.5255 22.3802 11.5252L22.3798 11.5243L22.3786 11.5222L22.3753 11.5162L22.3649 11.4971C22.3562 11.4814 22.344 11.4596 22.3284 11.4323C22.2972 11.3775 22.2523 11.3001 22.1938 11.2034C22.077 11.0101 21.9056 10.7387 21.6816 10.4151C21.2348 9.7698 20.5721 8.90792 19.7071 8.04288C17.9923 6.32814 15.3772 4.5 12.0002 4.5C10.3172 4.5 8.82343 4.95405 7.53605 5.62183L9.03718 7.12296C9.93833 6.73741 10.9285 6.5 12.0002 6.5C14.6227 6.5 16.7576 7.92186 18.2929 9.45712C19.0529 10.2171 19.6403 10.9802 20.0373 11.5536C20.1532 11.721 20.2523 11.8715 20.3343 12C20.2523 12.1285 20.1532 12.279 20.0373 12.4464C19.6403 13.0198 19.0528 13.7829 18.2928 14.5429C17.9943 14.8414 17.6731 15.1356 17.3301 15.4159L18.7502 16.836ZM14.851 12.9368C14.9478 12.642 15.0002 12.3271 15.0002 12C15.0002 10.3431 13.657 9 12.0002 9C11.673 9 11.3581 9.05236 11.0634 9.14915L14.851 12.9368ZM9.47123 10.3854L13.6147 14.5289C13.1486 14.8271 12.5946 15 12.0002 15C10.3433 15 9.00015 13.6569 9.00015 12C9.00015 11.4056 9.17302 10.8516 9.47123 10.3854ZM7.23587 8.15008C6.67517 8.55265 6.16471 8.99986 5.70743 9.45712C4.94744 10.2171 4.36003 10.9802 3.96301 11.5536C3.84708 11.7211 3.74793 11.8715 3.66598 12.0001C3.7479 12.1286 3.84702 12.279 3.96292 12.4465C4.35986 13.0199 4.94715 13.783 5.70704 14.5429C7.24214 16.0781 9.37691 17.5 11.9997 17.5C13.3462 17.5 14.5642 17.1252 15.6385 16.5527L17.1048 18.019C15.6807 18.8778 13.9699 19.5 11.9997 19.5C8.62242 19.5 6.00743 17.6719 4.29277 15.9571C3.42779 15.092 2.7652 14.2301 2.31848 13.5848C2.09452 13.2613 1.92321 12.9898 1.80638 12.7965C1.74793 12.6998 1.703 12.6224 1.67182 12.5676C1.65623 12.5403 1.64407 12.5185 1.63537 12.5028L1.62491 12.4837L1.62163 12.4777L1.62048 12.4756L1.62002 12.4747C1.61983 12.4744 1.61965 12.474 2.50015 12C1.61971 11.5258 1.61989 11.5255 1.62008 11.5252L1.62053 11.5243L1.62168 11.5222L1.62497 11.5162L1.63543 11.4971C1.64413 11.4814 1.6563 11.4596 1.67189 11.4323C1.70307 11.3775 1.74801 11.3001 1.80648 11.2034C1.92333 11.0101 2.09467 10.7387 2.31868 10.4151C2.76548 9.7698 3.42817 8.90792 4.29324 8.04288C4.7378 7.59834 5.24286 7.14618 5.80602 6.72023L7.23587 8.15008ZM2.50015 12L1.61965 12.474L1.3644 11.9999L1.61971 11.5258L2.50015 12Z" fill="black" fill-opacity="0.2"/>
<path fill-rule="evenodd" clip-rule="evenodd" d="M18.7502 16.836C19.0949 16.5462 19.4141 16.25 19.707 15.9571C20.5721 15.0921 21.2348 14.2302 21.6816 13.5849C21.9056 13.2613 22.077 12.9899 22.1938 12.7966C22.2523 12.6999 22.2972 12.6225 22.3284 12.5677C22.344 12.5404 22.3562 12.5186 22.3649 12.5029L22.3753 12.4838L22.3786 12.4778L22.3798 12.4757L22.3802 12.4748C22.3804 12.4745 22.3806 12.4742 21.5002 12L22.3806 12.4742L22.6359 12L22.3806 11.5258L21.5002 12C22.3806 11.5258 22.3804 11.5255 22.3802 11.5252L22.3798 11.5243L22.3786 11.5222L22.3753 11.5162L22.3649 11.4971C22.3562 11.4814 22.344 11.4596 22.3284 11.4323C22.2972 11.3775 22.2523 11.3001 22.1938 11.2034C22.077 11.0101 21.9056 10.7387 21.6816 10.4151C21.2348 9.7698 20.5721 8.90792 19.7071 8.04288C17.9923 6.32814 15.3772 4.5 12.0002 4.5C10.3172 4.5 8.82343 4.95405 7.53605 5.62183L9.03718 7.12296C9.93833 6.73741 10.9285 6.5 12.0002 6.5C14.6227 6.5 16.7576 7.92186 18.2929 9.45712C19.0529 10.2171 19.6403 10.9802 20.0373 11.5536C20.1532 11.721 20.2523 11.8715 20.3343 12C20.2523 12.1285 20.1532 12.279 20.0373 12.4464C19.6403 13.0198 19.0528 13.7829 18.2928 14.5429C17.9943 14.8414 17.6731 15.1356 17.3301 15.4159L18.7502 16.836ZM14.851 12.9368C14.9478 12.642 15.0002 12.3271 15.0002 12C15.0002 10.3431 13.657 9 12.0002 9C11.673 9 11.3581 9.05236 11.0634 9.14915L14.851 12.9368ZM9.47123 10.3854L13.6147 14.5289C13.1486 14.8271 12.5946 15 12.0002 15C10.3433 15 9.00015 13.6569 9.00015 12C9.00015 11.4056 9.17302 10.8516 9.47123 10.3854ZM7.23587 8.15008C6.67517 8.55265 6.16471 8.99986 5.70743 9.45712C4.94744 10.2171 4.36003 10.9802 3.96301 11.5536C3.84708 11.7211 3.74793 11.8715 3.66598 12.0001C3.7479 12.1286 3.84702 12.279 3.96292 12.4465C4.35986 13.0199 4.94715 13.783 5.70704 14.5429C7.24214 16.0781 9.37691 17.5 11.9997 17.5C13.3462 17.5 14.5642 17.1252 15.6385 16.5527L17.1048 18.019C15.6807 18.8778 13.9699 19.5 11.9997 19.5C8.62242 19.5 6.00743 17.6719 4.29277 15.9571C3.42779 15.092 2.7652 14.2301 2.31848 13.5848C2.09452 13.2613 1.92321 12.9898 1.80638 12.7965C1.74793 12.6998 1.703 12.6224 1.67182 12.5676C1.65623 12.5403 1.64407 12.5185 1.63537 12.5028L1.62491 12.4837L1.62163 12.4777L1.62048 12.4756L1.62002 12.4747C1.61983 12.4744 1.61965 12.474 2.50015 12C1.61971 11.5258 1.61989 11.5255 1.62008 11.5252L1.62053 11.5243L1.62168 11.5222L1.62497 11.5162L1.63543 11.4971C1.64413 11.4814 1.6563 11.4596 1.67189 11.4323C1.70307 11.3775 1.74801 11.3001 1.80648 11.2034C1.92333 11.0101 2.09467 10.7387 2.31868 10.4151C2.76548 9.7698 3.42817 8.90792 4.29324 8.04288C4.7378 7.59834 5.24286 7.14618 5.80602 6.72023L7.23587 8.15008ZM2.50015 12L1.61965 12.474L1.3644 11.9999L1.61971 11.5258L2.50015 12Z" fill="black" fill-opacity="0.2"/>
<path fill-rule="evenodd" clip-rule="evenodd" d="M18.7502 16.836C19.0949 16.5462 19.4141 16.25 19.707 15.9571C20.5721 15.0921 21.2348 14.2302 21.6816 13.5849C21.9056 13.2613 22.077 12.9899 22.1938 12.7966C22.2523 12.6999 22.2972 12.6225 22.3284 12.5677C22.344 12.5404 22.3562 12.5186 22.3649 12.5029L22.3753 12.4838L22.3786 12.4778L22.3798 12.4757L22.3802 12.4748C22.3804 12.4745 22.3806 12.4742 21.5002 12L22.3806 12.4742L22.6359 12L22.3806 11.5258L21.5002 12C22.3806 11.5258 22.3804 11.5255 22.3802 11.5252L22.3798 11.5243L22.3786 11.5222L22.3753 11.5162L22.3649 11.4971C22.3562 11.4814 22.344 11.4596 22.3284 11.4323C22.2972 11.3775 22.2523 11.3001 22.1938 11.2034C22.077 11.0101 21.9056 10.7387 21.6816 10.4151C21.2348 9.7698 20.5721 8.90792 19.7071 8.04288C17.9923 6.32814 15.3772 4.5 12.0002 4.5C10.3172 4.5 8.82343 4.95405 7.53605 5.62183L9.03718 7.12296C9.93833 6.73741 10.9285 6.5 12.0002 6.5C14.6227 6.5 16.7576 7.92186 18.2929 9.45712C19.0529 10.2171 19.6403 10.9802 20.0373 11.5536C20.1532 11.721 20.2523 11.8715 20.3343 12C20.2523 12.1285 20.1532 12.279 20.0373 12.4464C19.6403 13.0198 19.0528 13.7829 18.2928 14.5429C17.9943 14.8414 17.6731 15.1356 17.3301 15.4159L18.7502 16.836ZM14.851 12.9368C14.9478 12.642 15.0002 12.3271 15.0002 12C15.0002 10.3431 13.657 9 12.0002 9C11.673 9 11.3581 9.05236 11.0634 9.14915L14.851 12.9368ZM9.47123 10.3854L13.6147 14.5289C13.1486 14.8271 12.5946 15 12.0002 15C10.3433 15 9.00015 13.6569 9.00015 12C9.00015 11.4056 9.17302 10.8516 9.47123 10.3854ZM7.23587 8.15008C6.67517 8.55265 6.16471 8.99986 5.70743 9.45712C4.94744 10.2171 4.36003 10.9802 3.96301 11.5536C3.84708 11.7211 3.74793 11.8715 3.66598 12.0001C3.7479 12.1286 3.84702 12.279 3.96292 12.4465C4.35986 13.0199 4.94715 13.783 5.70704 14.5429C7.24214 16.0781 9.37691 17.5 11.9997 17.5C13.3462 17.5 14.5642 17.1252 15.6385 16.5527L17.1048 18.019C15.6807 18.8778 13.9699 19.5 11.9997 19.5C8.62242 19.5 6.00743 17.6719 4.29277 15.9571C3.42779 15.092 2.7652 14.2301 2.31848 13.5848C2.09452 13.2613 1.92321 12.9898 1.80638 12.7965C1.74793 12.6998 1.703 12.6224 1.67182 12.5676C1.65623 12.5403 1.64407 12.5185 1.63537 12.5028L1.62491 12.4837L1.62163 12.4777L1.62048 12.4756L1.62002 12.4747C1.61983 12.4744 1.61965 12.474 2.50015 12C1.61971 11.5258 1.61989 11.5255 1.62008 11.5252L1.62053 11.5243L1.62168 11.5222L1.62497 11.5162L1.63543 11.4971C1.64413 11.4814 1.6563 11.4596 1.67189 11.4323C1.70307 11.3775 1.74801 11.3001 1.80648 11.2034C1.92333 11.0101 2.09467 10.7387 2.31868 10.4151C2.76548 9.7698 3.42817 8.90792 4.29324 8.04288C4.7378 7.59834 5.24286 7.14618 5.80602 6.72023L7.23587 8.15008ZM2.50015 12L1.61965 12.474L1.3644 11.9999L1.61971 11.5258L2.50015 12Z" fill="black" fill-opacity="0.2"/>
<path fill-rule="evenodd" clip-rule="evenodd" d="M18.7502 16.836C19.0949 16.5462 19.4141 16.25 19.707 15.9571C20.5721 15.0921 21.2348 14.2302 21.6816 13.5849C21.9056 13.2613 22.077 12.9899 22.1938 12.7966C22.2523 12.6999 22.2972 12.6225 22.3284 12.5677C22.344 12.5404 22.3562 12.5186 22.3649 12.5029L22.3753 12.4838L22.3786 12.4778L22.3798 12.4757L22.3802 12.4748C22.3804 12.4745 22.3806 12.4742 21.5002 12L22.3806 12.4742L22.6359 12L22.3806 11.5258L21.5002 12C22.3806 11.5258 22.3804 11.5255 22.3802 11.5252L22.3798 11.5243L22.3786 11.5222L22.3753 11.5162L22.3649 11.4971C22.3562 11.4814 22.344 11.4596 22.3284 11.4323C22.2972 11.3775 22.2523 11.3001 22.1938 11.2034C22.077 11.0101 21.9056 10.7387 21.6816 10.4151C21.2348 9.7698 20.5721 8.90792 19.7071 8.04288C17.9923 6.32814 15.3772 4.5 12.0002 4.5C10.3172 4.5 8.82343 4.95405 7.53605 5.62183L9.03718 7.12296C9.93833 6.73741 10.9285 6.5 12.0002 6.5C14.6227 6.5 16.7576 7.92186 18.2929 9.45712C19.0529 10.2171 19.6403 10.9802 20.0373 11.5536C20.1532 11.721 20.2523 11.8715 20.3343 12C20.2523 12.1285 20.1532 12.279 20.0373 12.4464C19.6403 13.0198 19.0528 13.7829 18.2928 14.5429C17.9943 14.8414 17.6731 15.1356 17.3301 15.4159L18.7502 16.836ZM14.851 12.9368C14.9478 12.642 15.0002 12.3271 15.0002 12C15.0002 10.3431 13.657 9 12.0002 9C11.673 9 11.3581 9.05236 11.0634 9.14915L14.851 12.9368ZM9.47123 10.3854L13.6147 14.5289C13.1486 14.8271 12.5946 15 12.0002 15C10.3433 15 9.00015 13.6569 9.00015 12C9.00015 11.4056 9.17302 10.8516 9.47123 10.3854ZM7.23587 8.15008C6.67517 8.55265 6.16471 8.99986 5.70743 9.45712C4.94744 10.2171 4.36003 10.9802 3.96301 11.5536C3.84708 11.7211 3.74793 11.8715 3.66598 12.0001C3.7479 12.1286 3.84702 12.279 3.96292 12.4465C4.35986 13.0199 4.94715 13.783 5.70704 14.5429C7.24214 16.0781 9.37691 17.5 11.9997 17.5C13.3462 17.5 14.5642 17.1252 15.6385 16.5527L17.1048 18.019C15.6807 18.8778 13.9699 19.5 11.9997 19.5C8.62242 19.5 6.00743 17.6719 4.29277 15.9571C3.42779 15.092 2.7652 14.2301 2.31848 13.5848C2.09452 13.2613 1.92321 12.9898 1.80638 12.7965C1.74793 12.6998 1.703 12.6224 1.67182 12.5676C1.65623 12.5403 1.64407 12.5185 1.63537 12.5028L1.62491 12.4837L1.62163 12.4777L1.62048 12.4756L1.62002 12.4747C1.61983 12.4744 1.61965 12.474 2.50015 12C1.61971 11.5258 1.61989 11.5255 1.62008 11.5252L1.62053 11.5243L1.62168 11.5222L1.62497 11.5162L1.63543 11.4971C1.64413 11.4814 1.6563 11.4596 1.67189 11.4323C1.70307 11.3775 1.74801 11.3001 1.80648 11.2034C1.92333 11.0101 2.09467 10.7387 2.31868 10.4151C2.76548 9.7698 3.42817 8.90792 4.29324 8.04288C4.7378 7.59834 5.24286 7.14618 5.80602 6.72023L7.23587 8.15008ZM2.50015 12L1.61965 12.474L1.3644 11.9999L1.61971 11.5258L2.50015 12Z" fill="black" fill-opacity="0.2"/>
<path d="M3.5 5L19.5 21" stroke="#0C1200" stroke-width="2"/>
<path d="M3.5 5L19.5 21" stroke="black" stroke-opacity="0.2" stroke-width="2"/>
<path d="M3.5 5L19.5 21" stroke="black" stroke-opacity="0.2" stroke-width="2"/>
<path d="M3.5 5L19.5 21" stroke="black" stroke-opacity="0.2" stroke-width="2"/>
<path d="M3.5 5L19.5 21" stroke="black" stroke-opacity="0.2" stroke-width="2"/>
</svg>
